<svg xmlns="http://www.w3.org/2000/svg" width="35" height="28" viewBox="0 0 35 28" role="img" aria-label="GitHub">
  <g shape-rendering="crispEdges">
    <rect width="35" height="28" fill="#000000"/>
  </g>
  
  <svg x="8" y="5" width="18" height="18" viewBox="0 0 1024 1024">
    <path fill="#ffffff" d="M512 76C264.8 76 64 276.8 64 524c0 197.6 128 365.2 305.6 424.8 22.4 4 30.4-9.6 30.4-21.6 0-10.8-.4-46-0.8-83.2-124.4 27-150.6-53.2-150.6-53.2-20.4-52-50-65.8-50-65.8-40.8-27.8 3.2-27.2 3.2-27.2 45 3.2 68.6 46.2 68.6 46.2 40.2 68.8 105.2 48.8 130.8 37.2 4-28.8 15.6-48.8 28.4-60.2-99.2-11.2-203.4-49.6-203.4-220.8 0-48.8 17.6-88.6 46.2-119.6-4.6-11.2-20-56.2 4.4-117 0 0 38-12.2 124.6 46.2 36.2-10.2 74.8-15.2 113.4-15.4 38.6.2 77.2 5 113.6 15.4 86.6-58.4 124.6-46.2 124.6-46.2 24.4 60.8 9 105.8 4.4 117 28.6 31 46 70.8 46 119.6 0 171.6-104.4 209.4-203.8 220.4 16 13.8 30.2 41 30.2 82.6 0 59.6-.6 107.6-.6 122.4 0 12 8 25.6 30.4 21.4C832 889.2 960 721.6 960 524 960 276.8 759.2 76 512 76z"/>
  </svg>
</svg>